{"title":"50 Cent Ft. Joe -  Big Rich Town [Music Video] 1080p [Sbyky]","uid":10127602,"size":76275586,"categoryP":"video","categoryS":"music_videos","magnet":"?xt=urn:btih:f297ea1babf35c2723cc33066d7935a44fc910fe&amp;dn=50+Cent+Ft.+Joe+-++Big+Rich+Town+%5BMusic+Video%5D+1080p+%5BSbyky%5D&amp;tr=udp%3A%2F%2Ftracker.openbittorrent.com%3A80&amp;tr=udp%3A%2F%2Fopen.demonii.com%3A1337&amp;tr=udp%3A%2F%2Ftracker.coppersurfer.tk%3A6969&amp;tr=udp%3A%2F%2Fexodus.desync.com%3A6969","seeders":6,"leechers":1,"uploader":"Sbyky","files":1,"time":1399796503,"description":"\n\nGeneral\nComplete name                            : 50 Cent Ft. Joe -  Big Rich Town [Music Video] 1080p [Sbyky].MP4\nFormat                                   : MPEG-4\nFormat profile                           : Base Media\nCodec ID                                 : isom\nFile size                                : 72.7 MiB\nDuration                                 : 2mn 48s\nOverall bit rate mode                    : Variable\nOverall bit rate                         : 3 613 Kbps\nEncoded date                             : UTC 2014-04-07 03:06:28\nTagged date                              : UTC 2014-04-07 03:06:28\n\nVideo\nID                                       : 1\nFormat                                   : AVC\nFormat/Info                              : Advanced Video Codec\nFormat profile                           : &lt;a class=&quot;__cf_email__&quot; href=&quot;/cdn-cgi/l/email-protection&quot; data-cfemail=&quot;5e163739361e126a706e&quot;&gt;[email&amp;#160;protected]&lt;/a&gt;&lt;script cf-hash='f9e31' type=&quot;text/javascript&quot;&gt;\n/* &lt;![CDATA[ */!function(){try{var t=&quot;currentScript&quot;in document?document.currentScript:function(){for(var t=document.getElementsByTagName(&quot;script&quot;),e=t.length;e--;)if(t[e].getAttribute(&quot;cf-hash&quot;))return t[e]}();if(t&amp;&amp;t.previousSibling){var e,r,n,i,c=t.previousSibling,a=c.getAttribute(&quot;data-cfemail&quot;);if(a){for(e=&quot;&quot;,r=parseInt(a.substr(0,2),16),n=2;a.length-n;n+=2)i=parseInt(a.substr(n,2),16)^r,e+=String.fromCharCode(i);e=document.createTextNode(e),c.parentNode.replaceChild(e,c)}}}catch(u){}}();/* ]]&gt; */&lt;/script&gt;\nFormat settings, CABAC                   : Yes\nFormat settings, ReFrames                : 2 frames\nCodec ID                                 : avc1\nCodec ID/Info                            : Advanced Video Coding\nDuration                                 : 2mn 48s\nBit rate                                 : 3 485 Kbps\nWidth                                    : 1 920 pixels\nHeight                                   : 1 080 pixels\nDisplay aspect ratio                     : 16:9\nFrame rate mode                          : Variable\nFrame rate                               : 23.976 fps\nMinimum frame rate                       : 23.974 fps\nMaximum frame rate                       : 24.168 fps\nColor space                              : YUV\nChroma subsampling                       : 4:2:0\nBit depth                                : 8 bits\nScan type                                : Progressive\nBits/(Pixel*Frame)                       : 0.070\nStream size                              : 70.1 MiB (96%)\nEncoded date                             : UTC 2014-04-07 03:06:28\nTagged date                              : UTC 2014-04-07 03:06:28\n\nAudio\nID                                       : 2\nFormat                                   : AAC\nFormat/Info                              : Advanced Audio Codec\nFormat profile                           : LC\nCodec ID                                 : 40\nDuration                                 : 2mn 48s\nBit rate mode                            : Variable\nBit rate                                 : 126 Kbps\nChannel(s)                               : 2 channels\nChannel positions                        : Front: L R\nSampling rate                            : 44.1 KHz\nCompression mode                         : Lossy\nStream size                              : 2.53 MiB (3%)\nEncoded date                             : UTC 2014-04-07 03:05:58\nTagged date                              : UTC 2014-04-07 03:05:58\n\nShared By Sbyky\n","torrent":{"xt":"urn:btih:f297ea1babf35c2723cc33066d7935a44fc910fe","amp;dn":"50+Cent+Ft.+Joe+-++Big+Rich+Town+%5BMusic+Video%5D+1080p+%5BSbyky%5D","amp;tr":["udp%3A%2F%2Ftracker.openbittorrent.com%3A80","udp%3A%2F%2Fopen.demonii.com%3A1337","udp%3A%2F%2Ftracker.coppersurfer.tk%3A6969","udp%3A%2F%2Fexodus.desync.com%3A6969"],"infoHash":"f297ea1babf35c2723cc33066d7935a44fc910fe","infoHashBuffer":{"type":"Buffer","data":[242,151,234,27,171,243,92,39,35,204,51,6,109,121,53,164,79,201,16,254]},"announce":[],"urlList":[]}}